<?xml version="1.0" encoding="utf-8"?>
<!-- Generator: Adobe Illustrator 22.1.0, SVG Export Plug-In . SVG Version: 6.00 Build 0)  -->
<svg version="1.1" id="Calque_1" xmlns="http://www.w3.org/2000/svg" xmlns:xlink="http://www.w3.org/1999/xlink" x="0px" y="0px"
	 viewBox="0 0 566.9 566.9" style="enable-background:new 0 0 566.9 566.9;" xml:space="preserve">
<style type="text/css">
	.st0{fill:#FFF51F;stroke:#FFF51F;stroke-width:0.25;stroke-miterlimit:10;}
	.st1{fill:#FF8AFA;}
	.st2{fill:#231F20;}
	.st3{stroke:#FFF74A;stroke-width:0.25;stroke-miterlimit:10;}
</style>
<rect x="12.9" y="328.4" class="st0" width="494.2" height="51"/>
<rect x="63.4" y="217.7" class="st0" width="419.2" height="51"/>
<g>
	<path class="st1" d="M144.6,268.4c-14.6,0-26.1-3.9-34.7-11.8c-8.6-7.8-12.9-19.1-12.9-33.9c0-17,5.2-31.5,15.6-43.4
		c10.4-11.9,23.8-17.9,40.3-17.9c12.8,0,22.7,2.6,29.7,7.9c9.3,6.9,14.2,17.6,14.8,32h-29.7c-0.1-4.7-1.4-8.4-3.9-11.2
		c-2.5-2.8-6.3-4.2-11.3-4.2c-8.2,0-14.5,3.6-18.8,10.8c-4.3,7.2-6.5,15.6-6.5,25.2c0,6.4,1.4,11.7,4.2,15.8
		c2.8,4.1,7.3,6.2,13.3,6.2c4.9,0,9-1.4,12.4-4.2c3.4-2.8,5.7-6.8,6.8-12.1h30.2c-2.5,13.3-8.3,23.4-17.4,30.3
		C167.7,264.9,157,268.4,144.6,268.4z"/>
	<path class="st1" d="M242.7,163.2l-7.3,37.8h30.3l7.3-37.8h29.6l-19.8,102.7h-29.6l7.8-40.4h-30.3l-7.8,40.4h-29.6l19.8-102.7
		H242.7z"/>
	<path class="st1" d="M348,268.4c-14.1,0-25.6-3.9-34.5-11.7c-9-7.8-13.4-19-13.3-33.7c0.2-17.1,5.5-31.7,16-43.7
		c10.5-12,24-18,40.6-18c14.4,0,25.8,4,34.2,12.1c8.4,8.1,12.6,19.6,12.6,34.4c0,16.9-5.2,31.1-15.6,42.8
		C377.6,262.4,364.3,268.3,348,268.4z M329.9,223c0,6.3,1.5,11.5,4.6,15.5c3.1,4,7.7,6,13.9,6c5.6,0,10.3-1.9,14.3-5.8
		c4-3.9,6.8-8.5,8.5-13.9c1.7-5.4,2.6-11.1,2.6-17.1c0-6.9-1.4-12.4-4.3-16.4c-2.9-4.1-7.5-6.1-13.8-6.1c-8.2,0.1-14.6,4-19.1,11.8
		C332.1,204.7,329.9,213.4,329.9,223z"/>
	<path class="st1" d="M401.1,265.9l19.8-102.7h41.2c13.8,0,23.7,3.2,29.9,9.5c5.7,5.9,8.6,13.5,8.6,22.5c0,12-3.7,21.5-11.2,28.6
		c-7.5,7.1-17,10.6-28.7,10.6h-24l-6,31.5H401.1z M445.8,187.8l-4.6,23.7h16.2c3.9,0,7.2-1.2,9.8-3.7c2.6-2.4,3.9-5.8,3.9-10.1
		c0-6.6-3.6-9.9-10.9-9.9H445.8z"/>
</g>
<g>
	<path class="st1" d="M93.6,379.9c-14.6,0-26.1-3.9-34.7-11.8c-8.6-7.8-12.9-19.1-12.9-33.9c0-17,5.2-31.5,15.6-43.4
		c10.4-11.9,23.8-17.9,40.3-17.9c12.8,0,22.7,2.6,29.7,7.9c9.3,6.9,14.2,17.6,14.8,32h-29.7c-0.1-4.7-1.4-8.4-3.9-11.2
		c-2.5-2.8-6.3-4.2-11.3-4.2c-8.2,0-14.5,3.6-18.8,10.8c-4.3,7.2-6.5,15.6-6.5,25.2c0,6.4,1.4,11.7,4.2,15.8
		c2.8,4.1,7.3,6.2,13.3,6.2c4.9,0,9-1.4,12.4-4.2c3.4-2.8,5.7-6.8,6.8-12.1h30.2c-2.5,13.3-8.3,23.4-17.4,30.3
		C116.7,376.4,106,379.9,93.6,379.9z"/>
	<path class="st1" d="M191.7,274.8l-7.3,37.8h30.3l7.3-37.8h29.6l-19.8,102.7h-29.6l7.8-40.4h-30.3l-7.8,40.4h-29.6l19.8-102.7
		H191.7z"/>
	<path class="st1" d="M297,379.9c-14.1,0-25.6-3.9-34.5-11.7c-9-7.8-13.4-19-13.3-33.7c0.2-17.1,5.5-31.7,16-43.7
		c10.5-12,24-18,40.6-18c14.4,0,25.8,4,34.2,12.1c8.4,8.1,12.6,19.6,12.6,34.4c0,16.9-5.2,31.1-15.6,42.8
		C326.6,373.9,313.2,379.8,297,379.9z M278.9,334.5c0,6.3,1.5,11.5,4.6,15.5c3.1,4,7.7,6,13.9,6c5.6,0,10.3-1.9,14.3-5.8
		c4-3.9,6.8-8.5,8.5-13.9c1.7-5.4,2.6-11.1,2.6-17.1c0-6.9-1.4-12.4-4.3-16.4c-2.9-4.1-7.5-6.1-13.8-6.1c-8.2,0.1-14.6,4-19.1,11.8
		C281.1,316.3,278.9,324.9,278.9,334.5z"/>
	<path class="st1" d="M350.1,377.4l19.8-102.7h41.2c13.8,0,23.7,3.2,29.9,9.5c5.7,5.9,8.6,13.5,8.6,22.5c0,12-3.7,21.5-11.2,28.6
		c-7.5,7.1-17,10.6-28.7,10.6h-24l-6,31.5H350.1z M394.8,299.3l-4.6,23.7h16.2c3.9,0,7.2-1.2,9.8-3.7c2.6-2.4,3.9-5.8,3.9-10.1
		c0-6.6-3.6-9.9-10.9-9.9H394.8z"/>
</g>
<g>
	<path class="st2" d="M136.3,271.1c-14.6,0-26.1-3.9-34.7-11.8c-8.6-7.8-12.9-19.1-12.9-33.9c0-17,5.2-31.5,15.6-43.4
		c10.4-11.9,23.8-17.9,40.3-17.9c12.8,0,22.7,2.6,29.7,7.9c9.3,6.9,14.2,17.6,14.8,32h-29.7c-0.1-4.7-1.4-8.4-3.9-11.2
		c-2.5-2.8-6.3-4.2-11.3-4.2c-8.2,0-14.5,3.6-18.8,10.8c-4.3,7.2-6.5,15.6-6.5,25.2c0,6.4,1.4,11.7,4.2,15.8
		c2.8,4.1,7.3,6.2,13.3,6.2c4.9,0,9-1.4,12.4-4.2c3.4-2.8,5.7-6.8,6.8-12.1h30.2c-2.5,13.3-8.3,23.4-17.4,30.3
		C159.4,267.7,148.7,271.1,136.3,271.1z"/>
	<path class="st2" d="M234.4,166l-7.3,37.8h30.3l7.3-37.8h29.6l-19.8,102.7h-29.6l7.8-40.4h-30.3l-7.8,40.4H185L204.8,166H234.4z"/>
	<path class="st2" d="M339.7,271.1c-14.1,0-25.6-3.9-34.5-11.7c-9-7.8-13.4-19-13.3-33.7c0.2-17.1,5.5-31.7,16-43.7
		c10.5-12,24-18,40.6-18c14.4,0,25.8,4,34.2,12.1c8.4,8.1,12.6,19.6,12.6,34.4c0,16.9-5.2,31.1-15.6,42.8
		C369.3,265.1,356,271,339.7,271.1z M321.6,225.7c0,6.3,1.5,11.5,4.6,15.5c3.1,4,7.7,6,13.9,6c5.6,0,10.3-1.9,14.3-5.8
		c4-3.9,6.8-8.5,8.5-13.9c1.7-5.4,2.6-11.1,2.6-17.1c0-6.9-1.4-12.4-4.3-16.4c-2.9-4.1-7.5-6.1-13.8-6.1c-8.2,0.1-14.6,4-19.1,11.8
		C323.8,207.5,321.6,216.2,321.6,225.7z"/>
	<path class="st2" d="M392.8,268.7L412.6,166h41.2c13.8,0,23.7,3.2,29.9,9.5c5.7,5.9,8.6,13.5,8.6,22.5c0,12-3.7,21.5-11.2,28.6
		c-7.5,7.1-17,10.6-28.7,10.6h-24l-6,31.5H392.8z M437.5,190.6l-4.6,23.7h16.2c3.9,0,7.2-1.2,9.8-3.7c2.6-2.4,3.9-5.8,3.9-10.1
		c0-6.6-3.6-9.9-10.9-9.9H437.5z"/>
</g>
<g>
	<path class="st3" d="M86.5,381.8c-14.6,0-26.1-3.9-34.7-11.8c-8.6-7.8-12.9-19.1-12.9-33.9c0-17,5.2-31.5,15.6-43.4
		c10.4-11.9,23.8-17.9,40.3-17.9c12.8,0,22.7,2.6,29.7,7.9c9.3,6.9,14.2,17.6,14.8,32h-29.7c-0.1-4.7-1.4-8.4-3.9-11.2
		c-2.5-2.8-6.3-4.2-11.3-4.2c-8.2,0-14.5,3.6-18.8,10.8c-4.3,7.2-6.5,15.6-6.5,25.2c0,6.4,1.4,11.7,4.2,15.8
		c2.8,4.1,7.3,6.2,13.3,6.2c4.9,0,9-1.4,12.4-4.2c3.4-2.8,5.7-6.8,6.8-12.1h30.2c-2.5,13.3-8.3,23.4-17.4,30.3
		C109.6,378.4,98.9,381.8,86.5,381.8z"/>
	<path class="st3" d="M184.6,276.7l-7.3,37.8h30.3l7.3-37.8h29.6l-19.8,102.7h-29.6l7.8-40.4h-30.3l-7.8,40.4h-29.6L155,276.7H184.6
		z"/>
	<path class="st3" d="M289.9,381.8c-14.1,0-25.6-3.9-34.5-11.7c-9-7.8-13.4-19-13.3-33.7c0.2-17.1,5.5-31.7,16-43.7
		c10.5-12,24-18,40.6-18c14.4,0,25.8,4,34.2,12.1c8.4,8.1,12.6,19.6,12.6,34.4c0,16.9-5.2,31.1-15.6,42.8
		C319.5,375.9,306.2,381.7,289.9,381.8z M271.8,336.5c0,6.3,1.5,11.5,4.6,15.5c3.1,4,7.7,6,13.9,6c5.6,0,10.3-1.9,14.3-5.8
		c4-3.9,6.8-8.5,8.5-13.9c1.7-5.4,2.6-11.1,2.6-17.1c0-6.9-1.4-12.4-4.3-16.4c-2.9-4.1-7.5-6.1-13.8-6.1c-8.2,0.1-14.6,4-19.1,11.8
		C274,318.2,271.8,326.9,271.8,336.5z"/>
	<path class="st3" d="M343,379.4l19.8-102.7h41.2c13.8,0,23.7,3.2,29.9,9.5c5.7,5.9,8.6,13.5,8.6,22.5c0,12-3.7,21.5-11.2,28.6
		c-7.5,7.1-17,10.6-28.7,10.6h-24l-6,31.5H343z M387.7,301.3l-4.6,23.7h16.2c3.9,0,7.2-1.2,9.8-3.7c2.6-2.4,3.9-5.8,3.9-10.1
		c0-6.6-3.6-9.9-10.9-9.9H387.7z"/>
</g>
<g>
	<path d="M407.5,375.8c-1.1,0-2.2-0.1-3.1-0.3c-1-0.2-1.9-0.6-2.8-1.1c-0.9-0.5-1.6-1.3-2.1-2.3c-0.5-1-0.8-2.2-0.7-3.6h5.8
		c0,0.8,0.3,1.4,0.9,1.9c0.6,0.4,1.3,0.7,2.2,0.7c1.7,0,2.6-0.6,2.6-1.8c0-0.3-0.1-0.6-0.4-0.8c-0.3-0.3-0.6-0.5-1-0.6
		c-0.4-0.2-0.9-0.4-1.7-0.7c-0.1,0-0.1,0-0.1,0c0,0-0.1,0-0.1,0c-0.1,0-0.1,0-0.1-0.1c-2-0.8-3.5-1.6-4.5-2.5
		c-1-0.9-1.5-2.2-1.5-3.8c0-2.3,0.7-4,2.2-5.2c1.5-1.2,3.4-1.8,5.7-1.8c1,0,1.9,0.1,2.8,0.3c0.9,0.2,1.7,0.5,2.5,1
		c0.8,0.5,1.4,1.1,1.9,2c0.4,0.9,0.7,1.9,0.6,3.2H411c0-0.6-0.2-1.1-0.7-1.4c-0.4-0.3-1-0.5-1.7-0.5c-0.6,0-1.1,0.1-1.5,0.4
		c-0.4,0.3-0.7,0.6-0.7,1.1c0,0.2,0,0.3,0.1,0.4c0,0.1,0.1,0.3,0.3,0.4s0.3,0.2,0.4,0.3c0.1,0.1,0.3,0.2,0.6,0.3s0.5,0.2,0.8,0.3
		c0.2,0.1,0.6,0.2,1,0.4c0.5,0.2,0.9,0.3,1.2,0.4c0.8,0.3,1.5,0.6,2,0.9s1.1,0.7,1.7,1.1c0.5,0.5,1,1,1.3,1.7
		c0.3,0.7,0.4,1.5,0.4,2.3c0,2.4-0.8,4.3-2.5,5.6C412,375.2,409.9,375.8,407.5,375.8z"/>
	<path d="M417.5,359.3l0.9-5.2h16.5l-0.9,5.2h-5.5l-2.9,16.1H420l2.9-16.1H417.5z"/>
	<path d="M442.2,375.7c-2.9,0-5.1-0.8-6.6-2.3c-1.5-1.5-2-3.8-1.5-6.9l2.2-12.5h5.7l-2.4,13.2c-0.2,1.1-0.1,2,0.4,2.6
		c0.5,0.6,1.3,0.9,2.4,0.9c1.7,0,2.7-1,3.1-3.1L448,354h5.6l-2.4,13.8C450.2,373.1,447.2,375.7,442.2,375.7z"/>
	<path d="M452,375.3l3.8-21.3h7.8c2.6,0,4.7,0.8,6.3,2.4c1.6,1.6,2.4,3.9,2.4,6.7c0,3.7-1,6.6-2.9,8.8c-1.9,2.2-4.6,3.3-7.9,3.3H452
		z M458.6,370.2h2.8c1.6,0,2.8-0.6,3.7-1.8c0.9-1.2,1.4-2.8,1.4-4.8c0-3-1.3-4.5-3.8-4.5h-2.1L458.6,370.2z"/>
	<path d="M471.8,375.3l3.8-21.3h5.7l-3.8,21.3H471.8z"/>
	<path d="M489.9,375.8c-2.7,0-4.9-0.8-6.6-2.4c-1.7-1.6-2.6-3.9-2.5-7c0-3.6,1.1-6.6,3.1-9.1s4.6-3.7,7.8-3.7c2.8,0,4.9,0.8,6.5,2.5
		c1.6,1.7,2.4,4.1,2.4,7.1c0,3.5-1,6.5-3,8.9S493,375.8,489.9,375.8z M486.4,366.4c0,1.3,0.3,2.4,0.9,3.2c0.6,0.8,1.5,1.3,2.7,1.3
		c1.1,0,2-0.4,2.7-1.2c0.8-0.8,1.3-1.8,1.6-2.9c0.3-1.1,0.5-2.3,0.5-3.5c0-1.4-0.3-2.6-0.8-3.4c-0.5-0.8-1.4-1.3-2.6-1.3
		c-1.6,0-2.8,0.8-3.7,2.4C486.9,362.6,486.4,364.4,486.4,366.4z"/>
</g>
</svg>
